<?xml version="1.0" standalone="no"?>
<!DOCTYPE svg PUBLIC "-//W3C//DTD SVG 20010904//EN"
 "http://www.w3.org/TR/2001/REC-SVG-20010904/DTD/svg10.dtd">
<svg version="1.0" xmlns="http://www.w3.org/2000/svg"
 width="1876.000000pt" height="1188.000000pt" viewBox="0 0 1876.000000 1188.000000"
 preserveAspectRatio="xMidYMid meet">
<metadata>
Created by potrace 1.16, written by Peter Selinger 2001-2019
</metadata>
<g transform="translate(0.000000,1188.000000) scale(0.100000,-0.100000)"
fill="#4274d9" stroke="none">
<path d="M9435 11103 c-208 -5 -515 -25 -580 -38 -38 -8 -109 -19 -156 -25
-47 -5 -126 -19 -175 -30 -49 -12 -120 -27 -158 -36 -38 -8 -83 -21 -100 -28
-17 -7 -49 -16 -71 -20 -41 -8 -246 -75 -370 -122 -38 -14 -88 -32 -110 -40
-52 -19 -295 -130 -365 -167 -211 -112 -281 -152 -387 -221 -398 -258 -689
-505 -977 -826 -119 -133 -254 -300 -335 -415 -53 -75 -251 -381 -251 -388 0
-2 -18 -37 -40 -77 -47 -85 -49 -102 -15 -135 50 -51 109 -20 171 93 42 76 73
125 191 302 124 186 147 218 213 295 33 39 80 97 105 130 52 70 428 445 496
496 25 19 73 57 107 84 131 109 443 325 468 325 6 0 17 7 24 15 16 19 165 105
183 105 8 0 22 9 32 20 10 11 24 20 31 20 15 0 183 85 198 100 6 6 18 10 28
10 10 0 61 20 114 45 52 25 100 45 107 45 7 0 23 6 37 13 32 17 137 54 198 72
26 7 108 31 183 53 74 23 162 45 195 51 32 5 87 19 121 30 34 12 76 21 93 21
17 0 64 7 105 15 104 22 315 43 550 56 363 21 798 -16 1165 -97 730 -161 1387
-480 1951 -948 405 -336 769 -769 1033 -1231 74 -128 90 -145 136 -145 55 0
84 31 77 84 -6 51 -106 231 -216 391 -120 173 -221 311 -273 373 -514 614
-1104 1060 -1809 1366 -59 25 -114 46 -122 46 -9 0 -19 4 -22 10 -3 5 -27 16
-53 24 -26 8 -85 28 -132 44 -47 17 -125 42 -175 57 -49 14 -110 33 -135 40
-108 33 -373 89 -470 100 -30 4 -91 13 -134 21 -67 12 -243 24 -531 36 -34 2
-101 2 -150 1z M9446 10718 c-7 -13 -42 -68 -76 -123 -34 -55 -67 -103 -73
-107 -6 -4 -34 -10 -62 -13 -63 -9 -197 -42 -230 -57 -42 -19 -29 -43 58 -111
45 -35 95 -77 111 -93 l29 -29 -7 -132 c-6 -121 -6 -133 11 -141 13 -7 29 -5
53 6 22 10 72 17 135 19 218 8 216 8 273 -21 107 -55 152 -25 172 112 10 73
30 115 91 193 16 20 29 49 29 64 0 15 9 43 21 61 31 51 8 79 -86 99 -16 3 -68
18 -115 32 -94 28 -119 49 -226 191 -59 77 -83 88 -108 50z M7776 10338 c-8
-18 -17 -63 -21 -101 -7 -75 -31 -108 -102 -143 -69 -35 -153 -94 -153 -107 0
-18 21 -37 41 -37 32 0 167 -68 183 -92 8 -12 20 -45 26 -73 24 -114 47 -133
109 -91 29 20 49 26 92 26 29 0 67 7 82 15 44 23 127 45 167 45 69 0 75 11 76
162 1 73 -3 147 -9 165 -8 25 -8 45 2 84 17 67 5 80 -66 68 -27 -4 -83 -8
-126 -8 -73 -1 -80 1 -130 36 -28 20 -65 47 -80 60 -42 34 -75 31 -91 -9z
M11049 10308 c-82 -71 -83 -71 -266 -54 -92 8 -93 8 -93 -14 0 -12 23 -59 50
-105 28 -46 50 -94 50 -108 0 -13 -16 -55 -35 -93 -36 -69 -42 -98 -26 -109 5
-3 49 -7 98 -8 75 -3 97 -8 148 -34 33 -17 80 -49 105 -71 67 -59 82 -61 145
-17 29 20 66 54 81 76 15 22 39 50 53 63 56 48 121 126 121 145 0 13 -22 35
-62 65 -35 24 -93 75 -129 113 -53 55 -69 79 -83 125 -18 62 -37 88 -66 88
-10 0 -51 -28 -91 -62z M6797 9595 c-56 -29 -86 -31 -128 -9 -17 8 -42 14 -57
12 -26 -3 -27 -6 -32 -74 -5 -68 -7 -74 -54 -128 -39 -47 -46 -59 -36 -71 7
-8 25 -15 40 -15 51 0 86 -20 109 -60 12 -22 32 -46 44 -55 19 -13 24 -13 55
5 18 11 47 20 64 20 18 0 51 9 75 21 107 52 124 144 42 221 -24 22 -29 35 -29
73 0 50 -14 85 -33 85 -7 0 -34 -12 -60 -25z M12081 9598 c-4 -12 -4 -38 0
-58 14 -59 10 -78 -22 -114 -46 -53 -38 -75 38 -100 56 -19 67 -27 103 -78 42
-59 71 -73 98 -46 6 6 36 15 65 19 64 8 135 51 143 86 9 33 -20 93 -67 139
-26 25 -41 50 -45 73 -3 20 -10 47 -15 60 -10 25 -32 26 -116 0 -38 -12 -46
-11 -101 14 -72 33 -71 32 -81 5z M5845 8047 c-47 -16 -113 -56 -136 -83 -9
-11 -28 -40 -42 -66 -23 -40 -27 -58 -27 -130 0 -70 4 -91 26 -133 35 -67 57
-89 137 -142 l68 -44 -3 -47 c-3 -40 -7 -48 -33 -61 -44 -22 -110 -63 -292
-180 -39 -25 -115 -73 -168 -106 -53 -33 -139 -87 -190 -120 -215 -137 -428
-273 -490 -310 -159 -98 -271 -173 -305 -205 -113 -105 -80 -317 38 -256 20
10 57 16 99 16 80 0 123 20 335 158 32 20 142 90 245 155 104 65 222 141 263
167 41 27 100 64 130 83 30 19 131 82 224 141 249 158 264 164 341 132 30 -13
172 -99 340 -206 30 -19 112 -71 182 -115 71 -43 163 -102 205 -130 42 -27
103 -66 134 -85 32 -19 93 -57 136 -85 42 -27 119 -77 170 -109 51 -33 116
-74 144 -93 95 -61 130 -66 181 -27 28 21 33 31 33 66 0 92 -89 203 -235 292
-83 51 -128 79 -257 162 -42 27 -119 75 -170 107 -51 33 -145 92 -208 132 -63
40 -178 113 -255 161 -77 48 -198 126 -270 173 -71 48 -142 92 -157 98 -30 13
-35 28 -41 115 -4 64 -22 92 -65 102 -125 29 -214 144 -183 234 32 90 89 135
171 134 86 -1 163 -62 196 -153 19 -55 31 -69 60 -69 51 0 70 88 35 165 -23
51 -121 141 -169 155 -60 18 -153 21 -197 7z M8271 7899 c-41 -6 -92 -17 -115
-25 -102 -38 -104 -40 -199 -102 -59 -40 -129 -122 -167 -198 -34 -67 -35 -72
-35 -184 1 -105 3 -119 27 -165 33 -61 78 -111 140 -153 77 -52 143 -78 403
-152 178 -51 197 -59 252 -96 87 -60 130 -183 104 -302 -24 -114 -95 -178
-236 -214 -79 -20 -94 -21 -158 -10 -115 20 -184 59 -274 158 -43 47 -88 103
-99 125 -12 21 -27 46 -35 55 -31 38 -155 -16 -186 -82 -14 -28 -14 -37 2 -85
38 -119 120 -208 251 -277 258 -133 539 -103 791 86 40 29 77 51 82 48 5 -4
13 -1 18 6 4 7 22 20 38 29 17 9 42 38 56 65 109 195 21 467 -196 605 -83 53
-155 80 -335 125 -136 33 -228 65 -271 93 -62 39 -89 102 -89 205 0 59 -3 77
-17 84 -12 7 -14 17 -9 42 10 52 52 98 114 126 53 24 66 25 172 22 105 -4 121
-7 183 -37 79 -38 122 -77 165 -153 20 -36 39 -58 55 -62 33 -8 155 19 178 40
43 39 4 149 -87 240 -115 115 -315 170 -523 143z M12515 7903 c-105 -9 -181
-23 -233 -43 -399 -152 -620 -528 -573 -972 14 -129 41 -236 78 -311 117 -236
305 -389 548 -448 240 -58 513 26 749 231 25 21 58 41 74 44 76 17 162 154
209 336 23 91 27 125 27 255 1 134 -2 161 -27 255 -51 186 -143 350 -258 453
-61 56 -206 147 -233 147 -10 0 -30 7 -46 15 -44 23 -231 45 -315 38z m75
-173 c42 -6 96 -24 150 -51 148 -73 231 -178 302 -379 l33 -95 0 -220 c0 -203
-2 -226 -24 -295 -12 -41 -34 -96 -47 -121 -13 -26 -30 -59 -38 -74 -56 -108
-217 -201 -366 -212 -188 -13 -361 72 -461 228 -128 200 -155 527 -71 858 15
57 17 81 9 107 -8 28 -7 40 9 70 30 56 108 122 187 159 64 30 81 34 162 34 50
0 119 -4 155 -9z M4370 7880 c-204 -5 -282 -11 -340 -24 -123 -30 -111 64
-111 -832 0 -428 1 -791 1 -806 0 -48 21 -58 128 -58 107 0 132 9 150 57 7 17
12 137 14 299 l3 270 33 67 c29 58 38 68 70 77 20 5 136 10 257 10 248 0 253
1 274 69 14 47 3 77 -32 90 -12 4 -127 6 -257 3 -255 -5 -310 2 -332 41 -9 16
-12 78 -12 217 1 165 4 205 21 259 16 55 24 66 48 74 19 7 135 6 335 -3 225
-9 312 -9 333 -1 53 21 78 140 37 181 -22 22 -60 23 -620 10z M9333 7855 l-53
-25 0 -819 c0 -716 2 -820 15 -831 21 -17 185 -26 213 -11 54 29 57 43 62 351
l5 285 30 60 c43 86 41 86 429 83 l321 -3 15 -30 c12 -24 16 -94 20 -377 4
-266 8 -350 18 -360 9 -9 45 -13 115 -13 90 0 104 2 123 21 11 11 24 29 29 40
11 26 17 1280 6 1374 -6 54 -15 85 -33 112 -14 21 -29 59 -33 85 -11 72 -19
83 -66 83 -56 0 -138 -37 -150 -67 -5 -13 -9 -170 -9 -348 0 -315 -1 -325 -20
-335 -14 -7 -136 -10 -380 -8 -347 3 -360 4 -387 24 l-28 21 -5 244 -5 244
-32 55 c-18 30 -35 75 -39 100 -4 25 -11 51 -17 58 -15 20 -88 13 -144 -13z
M11165 7861 c-75 -34 -69 25 -73 -772 -3 -396 -1 -758 3 -805 9 -116 18 -124
128 -124 111 0 123 5 147 54 20 41 20 58 20 737 l0 694 -30 57 c-17 32 -33 78
-37 103 -3 26 -12 53 -20 61 -20 19 -90 17 -138 -5z M13800 7865 c-14 -8 -33
-14 -42 -15 -41 0 -46 -30 -57 -390 -17 -525 -24 -1263 -13 -1279 13 -19 164
-16 203 4 49 26 50 78 9 565 -20 243 -38 700 -28 700 16 0 66 -33 107 -71 45
-42 132 -153 301 -385 47 -64 99 -135 115 -158 17 -23 109 -149 205 -281 96
-132 177 -242 180 -245 3 -3 17 -21 30 -40 50 -74 92 -110 130 -110 43 0 97
27 122 60 32 43 34 142 8 305 l-24 145 18 312 c10 172 22 335 27 361 5 27 12
103 15 170 7 118 6 124 -19 173 -14 28 -29 75 -33 105 -10 78 -18 89 -64 89
-47 0 -136 -43 -145 -70 -4 -11 -1 -114 5 -230 14 -248 18 -833 7 -873 -4 -16
-13 -27 -20 -25 -13 5 -72 83 -227 299 -52 73 -148 205 -213 293 -65 89 -157
217 -205 286 -48 69 -129 169 -181 223 -92 95 -95 97 -140 97 -25 -1 -57 -7
-71 -15z M7868 5449 c-66 -23 -141 -85 -168 -140 -42 -81 -20 -189 48 -243 33
-27 140 -73 189 -82 68 -13 142 -52 163 -86 21 -36 27 -107 10 -138 -5 -10
-25 -28 -44 -39 -88 -55 -259 5 -301 107 -17 38 -49 43 -89 11 -49 -38 -26
-117 52 -177 146 -113 342 -88 480 63 75 80 82 196 16 274 -27 33 -93 73 -151
91 -100 33 -240 94 -255 112 -20 23 -23 75 -7 111 15 34 79 67 125 67 56 -1
124 -38 159 -87 33 -46 57 -53 105 -28 36 19 45 46 26 83 -54 104 -217 150
-358 101z M9306 5444 c-105 -36 -191 -110 -240 -204 -36 -70 -52 -202 -37
-302 16 -102 48 -166 117 -235 189 -189 487 -127 634 133 34 61 50 144 50 268
0 82 -3 94 -31 145 -68 121 -124 169 -234 203 -82 25 -174 22 -259 -8z m202
-88 c60 -30 107 -82 141 -156 24 -51 26 -65 25 -190 0 -118 -3 -141 -22 -180
-44 -90 -95 -128 -186 -137 -176 -18 -323 192 -302 434 11 138 68 216 186 254
38 13 105 2 158 -25z M10090 5451 c-60 -14 -77 -22 -87 -42 -9 -18 -13 -119
-13 -391 0 -320 2 -369 16 -382 18 -19 34 -20 68 -5 35 16 38 29 44 167 5 144
12 154 80 120 46 -22 101 -79 188 -194 31 -42 71 -84 88 -95 41 -25 98 -25
121 1 22 25 15 43 -47 120 -24 30 -55 73 -68 95 -13 22 -44 61 -67 86 l-43 47
35 28 c94 76 115 98 135 141 59 126 -13 266 -159 306 -75 21 -191 20 -291 -2z
m218 -90 c76 -39 111 -111 93 -191 -11 -50 -29 -72 -81 -95 -34 -15 -52 -17
-118 -9 l-77 9 -8 70 c-4 39 -6 104 -5 145 3 68 5 76 28 88 32 17 119 8 168
-17z M8415 5453 c-11 -2 -30 -6 -42 -9 -13 -2 -30 -16 -39 -29 -14 -21 -14
-28 -3 -41 11 -13 32 -15 125 -12 62 2 116 -1 121 -5 14 -14 21 -162 22 -439
1 -301 2 -305 70 -294 65 10 63 -1 70 383 l6 348 102 -4 c101 -3 102 -3 128
25 14 15 24 35 23 43 -7 36 -46 41 -308 40 -140 -1 -264 -3 -275 -6z M10892
5450 c-87 -4 -116 -10 -130 -23 -15 -16 -17 -51 -20 -385 -2 -202 0 -377 2
-388 11 -42 55 -49 279 -47 238 2 261 8 255 66 l-3 32 -182 6 c-125 4 -187 10
-198 19 -12 10 -15 33 -14 104 1 126 7 141 49 143 19 0 84 5 144 10 87 8 112
13 122 28 16 22 17 34 5 54 -7 11 -46 17 -153 23 -89 5 -147 13 -154 21 -14
14 -25 220 -13 238 8 13 129 15 265 3 66 -6 72 -4 102 21 36 30 39 46 16 69
-17 17 -140 19 -372 6z M4033 5081 c-117 -5 -134 -8 -147 -26 -20 -26 -20 -70
0 -89 8 -9 16 -16 17 -16 1 0 52 -7 112 -15 93 -12 353 -15 1645 -15 1483 0
1536 0 1560 18 36 27 39 81 6 118 l-24 29 -1519 1 c-835 0 -1577 -2 -1650 -5z
M11845 5083 c-90 -4 -125 -25 -125 -73 0 -40 29 -59 106 -72 98 -16 3198 -23
3236 -7 52 21 56 91 8 134 -22 20 -37 20 -1584 21 -858 0 -1597 -1 -1641 -3z
M12381 4208 c-95 -124 -95 -135 2 -216 217 -181 266 -213 295 -196 15 9 73 88
132 179 28 42 26 65 -4 65 -18 0 -37 -16 -72 -60 -25 -33 -55 -62 -65 -65 -24
-8 -88 34 -95 63 -5 16 4 37 30 75 39 57 45 84 19 94 -12 5 -31 -10 -67 -50
-28 -32 -57 -57 -65 -57 -26 0 -101 51 -101 68 0 9 23 46 50 81 28 35 50 69
50 75 0 13 -20 36 -31 36 -4 0 -40 -41 -78 -92z M5351 4264 c-17 -14 -31 -33
-31 -43 0 -19 61 -141 123 -246 116 -194 282 -429 421 -594 39 -46 89 -105
110 -132 122 -147 471 -468 681 -626 114 -86 439 -303 453 -303 5 0 20 -8 33
-18 41 -32 239 -135 414 -215 167 -77 485 -194 645 -237 384 -104 600 -142
973 -171 196 -15 652 -7 822 15 345 44 531 78 669 122 43 14 104 30 135 35 31
6 65 17 77 24 11 7 41 19 65 25 24 6 94 30 154 52 61 22 134 49 162 59 59 20
274 118 343 156 25 13 63 33 85 44 22 12 58 32 80 45 22 13 55 31 74 40 18 8
67 37 108 65 41 27 77 49 81 49 3 0 16 10 28 21 13 12 46 36 73 53 80 50 204
137 236 167 17 15 51 44 76 66 26 21 82 67 124 103 160 133 439 421 591 610
148 184 424 591 424 626 0 6 7 17 15 24 8 7 15 20 15 29 0 9 7 29 15 45 27 52
18 99 -25 121 -56 29 -61 24 -200 -210 -83 -139 -186 -295 -243 -368 -17 -22
-41 -55 -54 -74 -13 -20 -72 -92 -131 -162 -286 -339 -621 -637 -972 -866
-160 -103 -169 -110 -250 -155 -41 -23 -82 -46 -90 -51 -22 -12 -267 -133
-320 -157 -222 -101 -606 -232 -780 -267 -36 -7 -94 -20 -130 -28 -91 -22
-220 -45 -320 -57 -47 -5 -116 -15 -155 -22 -46 -7 -207 -12 -465 -12 -322 0
-414 3 -500 16 -58 9 -130 20 -160 23 -30 4 -71 11 -90 16 -20 5 -71 14 -115
20 -44 6 -106 19 -137 30 -32 10 -70 19 -84 19 -15 0 -55 9 -88 20 -34 10
-122 38 -196 61 -123 38 -419 150 -487 184 -344 171 -317 157 -428 219 -101
57 -373 242 -496 338 -309 241 -617 553 -839 853 -71 95 -250 361 -250 370 0
4 -26 41 -58 83 -32 42 -65 88 -74 102 -57 87 -91 103 -137 64z M6482 4121
c-55 -35 -65 -102 -26 -180 39 -78 25 -153 -31 -164 -20 -3 -36 3 -62 26 -34
30 -35 33 -30 89 5 57 -7 88 -34 88 -24 0 -49 -42 -49 -83 0 -111 134 -216
239 -187 94 25 117 119 61 239 -35 74 -35 100 -1 117 56 28 109 -27 96 -100
-12 -61 40 -91 80 -46 21 23 17 96 -9 134 -49 76 -166 109 -234 67z M6777
3918 c-26 -14 -21 -30 23 -73 22 -21 40 -47 40 -58 0 -10 -46 -66 -102 -125
-149 -155 -151 -157 -143 -181 4 -14 15 -21 31 -21 19 0 58 32 152 125 70 69
135 125 144 125 9 0 32 -18 49 -40 18 -22 40 -40 49 -40 25 0 43 26 36 52 -6
23 -218 229 -247 240 -8 3 -23 2 -32 -4z M12077 3843 c-24 -24 0 -57 137 -191
79 -77 154 -143 166 -147 31 -10 60 13 135 106 66 82 76 111 41 117 -13 3 -38
-16 -77 -57 -32 -34 -64 -61 -72 -61 -7 0 -49 33 -93 73 -177 161 -213 185
-237 160z M11986 3744 c-10 -9 -15 -23 -12 -31 12 -31 36 -146 36 -173 0 -15
-6 -30 -12 -33 -16 -5 -141 29 -181 49 -33 18 -77 6 -77 -19 0 -32 88 -84 170
-102 59 -13 123 -51 175 -104 53 -55 73 -61 98 -33 26 28 21 41 -38 115 -30
38 -55 74 -55 81 0 8 -9 42 -20 76 -11 34 -20 79 -20 99 0 39 -18 82 -36 88
-7 2 -19 -4 -28 -13z M7110 3558 c-19 -12 -60 -35 -90 -51 -237 -126 -277
-153 -267 -181 12 -30 38 -30 91 -1 58 31 59 31 130 -29 49 -43 58 -74 36
-131 -13 -34 3 -65 34 -65 31 0 37 9 78 115 56 144 101 311 89 334 -20 36 -52
39 -101 9z m-17 -117 c-4 -35 -31 -91 -47 -97 -20 -8 -65 26 -66 49 0 19 87
80 105 74 5 -3 9 -14 8 -26z M11574 3429 c-139 -95 -169 -121 -161 -143 10
-24 40 -19 82 14 21 17 43 29 49 27 6 -2 32 -35 59 -73 91 -133 162 -227 180
-238 22 -14 51 3 55 33 4 24 -87 172 -165 269 -24 30 -43 58 -43 62 0 5 15 20
33 34 17 15 38 31 45 37 15 12 12 51 -4 56 -5 2 -64 -33 -130 -78z M7312 3438
c-19 -25 -25 -65 -26 -183 l-1 -120 -42 -72 c-47 -78 -47 -103 -4 -103 28 0
53 22 105 93 15 21 40 43 55 49 92 38 196 97 213 121 19 27 19 30 4 45 -15 15
-23 13 -109 -31 -50 -26 -100 -47 -109 -47 -16 0 -18 12 -18 120 0 108 -2 120
-19 130 -26 13 -36 13 -49 -2z M11270 3243 c-8 -3 -34 -21 -57 -40 -32 -25
-46 -47 -57 -83 -37 -125 57 -201 193 -155 63 21 96 14 116 -25 21 -41 6 -75
-42 -96 -35 -14 -42 -14 -82 0 -40 15 -46 15 -68 0 -29 -18 -27 -40 7 -66 84
-62 222 -5 276 115 16 35 16 43 3 80 -17 49 -86 107 -129 107 -15 0 -47 -7
-70 -15 -63 -22 -127 -20 -140 5 -20 38 -8 73 30 92 30 14 43 15 88 5 44 -9
55 -9 62 3 26 40 -11 80 -72 79 -24 0 -50 -3 -58 -6z M7820 3063 c-85 -56
-129 -125 -137 -213 -9 -93 30 -169 110 -219 42 -26 124 -36 156 -19 35 19 50
46 31 58 -8 5 -21 7 -29 5 -8 -3 -38 1 -67 10 -104 30 -142 132 -91 245 38 84
66 105 138 105 52 0 63 -3 79 -25 11 -14 22 -40 26 -58 11 -56 77 -68 90 -16
9 35 -13 80 -56 114 -36 28 -43 30 -132 30 -70 0 -100 -4 -118 -17z M10681
2974 c-61 -17 -128 -58 -136 -84 -8 -24 9 -96 51 -215 66 -190 76 -205 129
-205 64 0 139 37 191 93 77 84 101 175 69 266 -45 128 -163 184 -304 145z
m117 -68 c97 -51 143 -205 86 -287 -20 -30 -36 -40 -76 -49 -28 -7 -53 -9 -58
-4 -15 15 -120 286 -120 310 0 15 9 25 28 32 40 15 109 14 140 -2z M8257 2929
c-76 -18 -127 -76 -153 -174 -27 -99 -12 -170 48 -233 35 -35 121 -72 168 -72
39 0 129 41 161 73 39 40 79 121 86 174 19 168 -125 276 -310 232z m131 -54
c78 -32 106 -147 61 -252 -27 -63 -54 -91 -97 -99 -82 -16 -156 41 -168 128
-11 78 35 180 99 218 39 24 55 25 105 5z M10399 2864 c-10 -13 -10 -29 0 -92
24 -143 24 -152 10 -152 -8 0 -67 43 -133 95 -121 97 -150 110 -180 79 -20
-19 -20 -35 -1 -81 8 -19 15 -61 15 -92 1 -31 11 -103 23 -161 l22 -105 35 0
c34 0 35 1 34 40 0 22 -11 86 -24 143 -12 56 -20 106 -16 109 9 9 16 4 114
-82 118 -104 185 -155 204 -155 38 0 48 64 23 146 -8 27 -27 101 -41 164 -33
147 -53 182 -85 144z M8725 2789 c-57 -30 -77 -51 -108 -112 -77 -153 22 -335
188 -345 106 -7 186 42 237 145 59 120 39 234 -54 302 -40 29 -47 31 -133 31
-73 0 -98 -4 -130 -21z m185 -47 c62 -46 85 -153 50 -244 -25 -69 -59 -98
-110 -98 -64 0 -98 18 -126 67 -24 39 -26 52 -22 116 8 127 63 194 148 182 19
-2 46 -13 60 -23z M9803 2758 c-6 -7 -18 -35 -27 -63 -8 -27 -23 -72 -32 -100
-8 -27 -22 -75 -29 -105 -7 -30 -20 -72 -30 -94 -22 -53 -17 -100 13 -104 18
-3 26 4 37 32 8 19 15 44 15 54 0 34 32 52 91 51 70 -1 80 -5 121 -59 29 -38
39 -45 69 -45 59 0 53 38 -34 208 -96 187 -125 231 -158 235 -14 2 -30 -3 -36
-10z m55 -159 c13 -25 22 -57 20 -74 -3 -28 -6 -30 -46 -33 -52 -4 -58 8 -37
67 8 24 15 55 15 68 0 36 20 24 48 -28z M9159 2733 c-6 -16 -14 -113 -16 -218
-7 -232 -13 -221 134 -236 117 -12 153 -3 153 36 0 32 -7 34 -111 43 l-84 7 4
176 c2 97 0 186 -4 197 -10 34 -62 30 -76 -5z"/>
</g>
</svg>
